<?xml version="1.0" encoding="UTF-8"?>
<svg version="1.1" xmlns="http://www.w3.org/2000/svg"  width="100.000000pt" height="100.000000pt" viewBox="0 0 500.000000 500.000000">
<path d="M0 0 C165 0 330 0 500 0 C500 165 500 330 500 500 C335 500 170 500 0 500 C0 335 0 170 0 0 Z " fill="#FDFDFD" transform="translate(0,0)"/>
<path d="M0 0 C2.70847139 0.00537735 5.41677757 -0.00000179 8.12524414 -0.00634766 C17.11622801 -0.01151978 26.09996847 0.11605332 35.08422852 0.47412109 C36.31079918 0.51181107 36.31079918 0.51181107 37.56214905 0.55026245 C45.44348468 0.9192586 51.26179248 3.46674339 57.02563477 8.90771484 C63.95899337 16.5612049 65.51569797 23.00950442 65.42016602 33.18896484 C64.54981141 45.55780709 60.7317747 55.16285238 51.51782227 63.56787109 C49.1186126 65.63479586 47.2600985 66.53822473 44.14282227 67.13037109 C45.16375977 68.05849609 45.16375977 68.05849609 46.20532227 69.00537109 C57.06747092 79.96009488 61.4305511 92.38674851 61.4597168 107.53833008 C61.28687237 117.51742809 58.04583329 125.84207574 51.14282227 133.13037109 C39.86047875 143.80559298 24.69720156 146.07283889 9.83032227 147.13037109 C8.77594971 147.21013184 7.72157715 147.28989258 6.63525391 147.37207031 C3.13834168 147.63340267 -0.35921941 147.88344543 -3.85717773 148.13037109 C-5.83041016 148.27007324 -5.83041016 148.27007324 -7.84350586 148.41259766 C-16.18035258 149.00059312 -24.51833425 149.57139269 -32.85717773 150.13037109 C-32.89254135 149.52839401 -32.92790497 148.92641693 -32.96434021 148.30619812 C-33.3354559 141.99477832 -33.7090317 135.68350744 -34.08398438 129.37231445 C-34.22327706 127.02241627 -34.36195945 124.67248183 -34.5 122.32250977 C-34.69945249 118.92893728 -34.9011585 115.53550479 -35.10327148 112.14208984 C-35.16373154 111.10517502 -35.22419159 110.06826019 -35.28648376 108.99992371 C-35.57286035 104.22493737 -35.90702857 99.46655756 -36.37304688 94.70556641 C-36.96092787 88.44928974 -37.16657201 82.19471347 -37.35717773 75.91552734 C-37.3977832 74.66573593 -37.43838867 73.41594452 -37.48022461 72.12828064 C-37.58731849 68.81672408 -37.6917248 65.50510663 -37.79467773 62.19342041 C-37.93742038 57.62440103 -38.08553371 53.05555138 -38.23242188 48.48666382 C-38.31532279 45.90596722 -38.39784481 43.32525842 -38.47998047 40.74453735 C-38.90224331 27.53847617 -39.37457467 14.3343561 -39.85717773 1.13037109 C-26.56351824 0.38746275 -13.31464342 -0.03126915 0 0 Z " fill="#3283CE" transform="translate(245.857177734375,177.86962890625)"/>
<path d="M0 0 C29.87094581 0.3443184 56.97186302 12.51486276 82.34790039 27.18359375 C85.04584864 28.73665106 87.6300163 30.14119888 90.5546875 31.22265625 C91.24949219 31.52945313 91.94429688 31.83625 92.66015625 32.15234375 C92.99015625 33.14234375 93.32015625 34.13234375 93.66015625 35.15234375 C94.40265625 35.44109375 95.14515625 35.72984375 95.91015625 36.02734375 C99.38633201 37.44941565 101.02934603 39.4586309 103.66015625 42.15234375 C104.79300078 43.21398667 105.9327497 44.26829469 107.078125 45.31640625 C124.69119484 61.46230248 138.6795578 78.89873952 149.66015625 100.15234375 C150.17787598 101.14886963 150.17787598 101.14886963 150.70605469 102.16552734 C172.28417406 144.27831712 175.9783474 193.79436628 162.09667969 238.90527344 C159.33570295 247.46603778 156.05844796 255.82753448 152.66015625 264.15234375 C153.98015625 261.51234375 155.30015625 258.87234375 156.66015625 256.15234375 C157.66015625 259.15234375 157.66015625 259.15234375 156.21875 262.5234375 C155.52188139 263.88415895 154.81415003 265.23935295 154.09765625 266.58984375 C153.34731262 268.03888461 152.59731542 269.48810491 151.84765625 270.9375 C151.47382813 271.65309082 151.1 272.36868164 150.71484375 273.10595703 C149.28272816 275.88465909 147.94697971 278.70769772 146.59765625 281.52734375 C144.21689669 286.3083773 141.43718063 290.60011062 138.2734375 294.8984375 C136.57363573 297.17679712 136.57363573 297.17679712 135.140625 299.9375 C134.65207031 300.66839844 134.16351563 301.39929688 133.66015625 302.15234375 C132.67015625 302.15234375 131.68015625 302.15234375 130.66015625 302.15234375 C130.44617188 302.84714844 130.2321875 303.54195313 130.01171875 304.2578125 C128.29476625 307.93486973 125.81161027 310.5707506 123.03515625 313.46484375 C122.21893799 314.32795166 122.21893799 314.32795166 121.38623047 315.20849609 C120.30202342 316.35117001 119.21437969 317.49059456 118.12304688 318.62646484 C116.9308858 319.86995729 115.75412552 321.12820015 114.58203125 322.390625 C109.07801966 328.16983717 102.81270717 332.9813243 96.46289062 337.78515625 C95.31827864 338.65322601 94.17835062 339.52753459 93.04492188 340.41015625 C63.53321796 363.36781801 28.57405956 374.30936878 -8.33984375 377.15234375 C-8.33984375 377.48234375 -8.33984375 377.81234375 -8.33984375 378.15234375 C-43.83153394 378.65511369 -43.83153394 378.65511369 -58.58203125 373.73828125 C-61.52075016 372.99209356 -61.52075016 372.99209356 -65.32421875 373.33984375 C-71.87001235 373.43055071 -77.64842962 371.01956629 -83.71484375 368.77734375 C-84.9476709 368.32834717 -86.18049805 367.87935059 -87.45068359 367.41674805 C-105.4753615 360.73867915 -120.79623209 351.682181 -135.54296875 339.4140625 C-138.3066251 337.17920632 -141.13531871 335.09250528 -144.02734375 333.02734375 C-156.09491555 324.34416178 -166.27871251 313.90778863 -175.33984375 302.15234375 C-176.14421875 301.17652344 -176.94859375 300.20070313 -177.77734375 299.1953125 C-184.38016341 291.10749087 -189.0361152 282.63951617 -193.33984375 273.15234375 C-193.88511719 271.97542969 -194.43039063 270.79851562 -194.9921875 269.5859375 C-198.54409941 261.6415849 -201.29578449 253.58910596 -203.72216797 245.24853516 C-204.34359277 243.1396208 -204.99802878 241.04299912 -205.65625 238.9453125 C-211.6248357 219.46561724 -212.60417803 200.21768479 -212.58984375 179.96484375 C-212.58924957 179.01649658 -212.5886554 178.06814941 -212.58804321 177.09106445 C-212.58152938 174.36786771 -212.5650563 171.64498664 -212.54296875 168.921875 C-212.53857285 168.09677933 -212.53417694 167.27168365 -212.52964783 166.42158508 C-212.48530631 162.82638245 -212.24729158 159.61829536 -211.33984375 156.15234375 C-211.26493717 154.54296638 -211.23074399 152.93142672 -211.2265625 151.3203125 C-210.82279452 135.72906248 -206.72383672 125.03272753 -198.82470703 111.71923828 C-196.73167237 108.10099322 -194.94773451 104.36146267 -193.15234375 100.58984375 C-184.5709602 83.27383765 -173.27580336 69.36653755 -157.33984375 58.15234375 C-157.33984375 62.21152261 -158.7567481 62.86838444 -161.58984375 65.71484375 C-176.87220142 81.88321495 -188.14444808 103.27404371 -195.58984375 124.08984375 C-195.87770752 124.8876123 -196.16557129 125.68538086 -196.4621582 126.50732422 C-198.1719046 131.6197213 -198.46223637 135.77819528 -198.33984375 141.15234375 C-198.92578125 143.9609375 -198.92578125 143.9609375 -199.71484375 146.58984375 C-210.88135606 189.19194048 -200.59573764 242.46466076 -178.4921875 280.31640625 C-176.54230069 283.35134301 -174.48476371 286.25191075 -172.33984375 289.15234375 C-171.8696582 289.79478027 -171.39947266 290.4372168 -170.91503906 291.09912109 C-161.72122211 304.79771667 -161.72122211 304.79771667 -149.33984375 315.15234375 C-147.87172503 316.43050256 -146.43590362 317.74633283 -145.02734375 319.08984375 C-111.74836875 349.49652626 -68.61495239 368.4129584 -23.40234375 368.33984375 C-22.71453827 368.3392395 -22.02673279 368.33863525 -21.31808472 368.3380127 C29.67406373 368.21645988 74.71905908 348.00001425 110.66015625 312.21484375 C111.18738281 311.67601562 111.71460938 311.1371875 112.2578125 310.58203125 C113.50932887 309.30611205 114.80107116 308.0699373 116.09765625 306.83984375 C130.05627444 292.20031736 140.91439184 272.97356642 147.58984375 253.88671875 C148.66015625 251.15234375 148.66015625 251.15234375 150.13110352 248.81591797 C151.68382728 246.11110936 152.45520051 243.81953945 153.1953125 240.80078125 C153.44732422 239.78371094 153.69933594 238.76664063 153.95898438 237.71875 C154.21099609 236.66558594 154.46300781 235.61242187 154.72265625 234.52734375 C154.97853516 233.49738281 155.23441406 232.46742188 155.49804688 231.40625 C158.1953615 220.38123651 160.21410145 209.50717747 160.66015625 198.15234375 C160.71115479 196.90493408 160.71115479 196.90493408 160.76318359 195.63232422 C162.07731425 157.85607077 152.29328715 120.90404427 131.66015625 89.15234375 C132.25194459 92.73842223 133.21786362 95.63587187 134.83984375 98.8828125 C135.27425781 99.76904297 135.70867187 100.65527344 136.15625 101.56835938 C137.06618168 103.39724473 137.97760901 105.22538681 138.890625 107.05273438 C146.50710985 122.61148294 146.50710985 122.61148294 144.66015625 128.15234375 C144.19867188 126.97800781 143.7371875 125.80367188 143.26171875 124.59375 C136.11224341 106.08325257 136.11224341 106.08325257 124.66015625 90.15234375 C124.42296875 89.45496094 124.18578125 88.75757813 123.94140625 88.0390625 C122.05072408 83.77926335 119.14108948 80.51826369 116.16015625 76.96484375 C115.52940186 76.20816406 114.89864746 75.45148438 114.2487793 74.671875 C106.21404525 65.12864951 97.55674818 56.78015176 87.66015625 49.15234375 C87.13437988 48.74483887 86.60860352 48.33733398 86.06689453 47.91748047 C77.14683964 41.06867023 67.89918439 35.77709534 57.66015625 31.15234375 C56.92667969 30.81992676 56.19320313 30.48750977 55.4375 30.14501953 C49.90216269 27.66574859 44.31046465 25.35634116 38.66015625 23.15234375 C37.84450195 22.83346191 37.02884766 22.51458008 36.18847656 22.18603516 C21.92560068 16.73324091 6.94188932 13.15781154 -8.33984375 12.15234375 C-8.66984375 12.48234375 -8.99984375 12.81234375 -9.33984375 13.15234375 C-11.3061903 13.37028018 -13.27965821 13.52443874 -15.25390625 13.65234375 C-17.09915894 13.77536865 -17.09915894 13.77536865 -18.98168945 13.90087891 C-20.29613037 13.9838623 -21.61057129 14.0668457 -22.96484375 14.15234375 C-24.29714719 14.23964458 -25.62942276 14.32737186 -26.96166992 14.41552734 C-29.57409314 14.58720869 -32.18664073 14.75700912 -34.79931641 14.92480469 C-38.44725639 15.15924684 -42.09454595 15.40213192 -45.74169922 15.6484375 C-48.27422412 15.81930041 -50.80701109 15.98611294 -53.33984375 16.15234375 C-53.33984375 16.81234375 -53.33984375 17.47234375 -53.33984375 18.15234375 C-54.19513672 18.38308594 -55.05042969 18.61382812 -55.93164062 18.8515625 C-71.43501869 23.07596169 -86.27814715 27.19166169 -100.33984375 35.15234375 C-102.20002787 36.08685314 -104.07269609 36.99160442 -105.94873047 37.89379883 C-114.75662548 42.14957614 -122.09575551 46.28716413 -128.33203125 53.88671875 C-130.79639294 56.66751598 -133.51195015 59.11745782 -136.27734375 61.58984375 C-144.59820354 69.1021417 -151.09368454 76.91891574 -157.15478516 86.34179688 C-158.47329617 88.35623398 -159.83097382 90.34054508 -161.1953125 92.32421875 C-172.76221483 109.20549374 -181.7989392 125.6499745 -185.875 145.875 C-186.70057525 149.91962496 -187.69951533 153.92609494 -188.65625 157.94140625 C-190.33292397 165.8169834 -190.49115164 173.37843749 -190.46484375 181.40234375 C-190.46871094 182.56636719 -190.47257812 183.73039063 -190.4765625 184.9296875 C-190.50499802 199.72114785 -190.50499802 199.72114785 -186.33984375 213.71484375 C-183.8931994 219.55323622 -183.03613433 224.34784773 -183.08984375 230.65234375 C-183.05718993 245.41350402 -174.93074278 259.08454503 -168.41601562 271.96826172 C-167.12670687 274.58490331 -166.0232272 277.2472652 -164.96484375 279.96484375 C-162.62808313 285.72835556 -159.76331724 291.04068996 -156.6953125 296.4375 C-155.33984375 299.15234375 -155.33984375 299.15234375 -155.33984375 302.15234375 C-173.01051899 280.40601277 -185.88094904 256.56515542 -192.78857422 229.31738281 C-193.15449098 227.88029255 -193.53623702 226.44713539 -193.93408203 225.01855469 C-197.48224447 212.02699999 -197.71164362 199.08972789 -197.71484375 185.71484375 C-197.71674713 184.8535788 -197.71865051 183.99231384 -197.72061157 183.10494995 C-197.71798743 172.60549152 -197.23198923 162.50363877 -195.33984375 152.15234375 C-195.1790332 151.26361572 -195.01822266 150.3748877 -194.85253906 149.45922852 C-186.2001703 104.99179809 -158.60309071 64.14647369 -121.19921875 38.69580078 C-90.36456412 18.0279296 -54.75788478 5.70494102 -17.33984375 7.15234375 C-17.33984375 7.48234375 -17.33984375 7.81234375 -17.33984375 8.15234375 C-11.64613586 9.38341573 -6.13768947 9.22304919 -0.33984375 9.15234375 C-5.28984375 8.82234375 -10.23984375 8.49234375 -15.33984375 8.15234375 C-15.33984375 7.49234375 -15.33984375 6.83234375 -15.33984375 6.15234375 C-11.70984375 5.82234375 -8.07984375 5.49234375 -4.33984375 5.15234375 C-4.66984375 3.83234375 -4.99984375 2.51234375 -5.33984375 1.15234375 C-3.76103004 -0.42646996 -2.18871074 0.00369091 0 0 Z " fill="#090909" transform="translate(271.33984375,60.84765625)"/>
<path d="M0 0 C0.33 0.33 0.66 0.66 1 1 C2.6982708 1.19242048 4.40351088 1.32396633 6.109375 1.4296875 C7.16785645 1.50098877 8.22633789 1.57229004 9.31689453 1.64575195 C10.44981934 1.72140381 11.58274414 1.79705566 12.75 1.875 C21.79223091 2.54754688 30.30029037 3.34975733 39 6 C40.16917969 6.33773437 41.33835937 6.67546875 42.54296875 7.0234375 C77.81931693 17.91706626 106.56155437 43.35899479 124.2265625 75.48046875 C128.63245051 84.22431258 131.9072113 93.27018025 134.75 102.625 C134.94875732 103.26864502 135.14751465 103.91229004 135.35229492 104.57543945 C138.60074911 115.77446089 139.35062401 127.08741296 139.31567383 138.68310547 C139.31251293 140.86606868 139.33608356 143.04767145 139.36132812 145.23046875 C139.40379299 154.85610971 138.25234485 163.63371496 136 173 C135.76676025 173.99281982 135.53352051 174.98563965 135.29321289 176.00854492 C129.66537997 199.15728938 117.40098122 219.930137 101 237 C100.55962402 237.47147461 100.11924805 237.94294922 99.66552734 238.42871094 C79.40771858 260.08871238 47.78735386 278.63787481 17.609375 280.1171875 C15.73918678 280.12372662 13.86891826 280.06921919 12 280 C12 279.67 12 279.34 12 279 C13.258125 278.76925781 14.51625 278.53851563 15.8125 278.30078125 C35.10049892 274.66865022 54.18460342 269.49663198 71 259 C71.66 258.01 72.32 257.02 73 256 C74.8125 254.9296875 74.8125 254.9296875 77 253.875 C82.81582895 250.74910789 87.2649916 246.55449488 92 242 C92.96164062 241.113125 93.92328125 240.22625 94.9140625 239.3125 C102.96433081 231.74584904 109.1399224 223.33870467 115 214 C115.38172363 213.39365723 115.76344727 212.78731445 116.15673828 212.16259766 C136.03494556 180.12922492 140.53654671 141.24450724 132.484375 104.796875 C131.027129 98.73954761 129.06670418 92.87338139 127 87 C127.23968506 87.8053418 127.47937012 88.61068359 127.72631836 89.44042969 C130.22265625 97.828125 130.22265625 97.828125 129 102 C128.59910156 100.80246094 128.19820313 99.60492188 127.78515625 98.37109375 C124.41852399 88.62415034 120.60173429 79.87445521 115.015625 71.19921875 C113 68 113 68 111.4765625 64.8984375 C104.18296978 50.58138512 89.00294054 37.88959203 76 29 C75.06542969 28.33613281 74.13085938 27.67226562 73.16796875 26.98828125 C54.46484607 14.51136193 26.70155003 4.26769193 4 5 C4 5.33 4 5.66 4 6 C0.33385091 6.33919096 -3.3329879 6.67028081 -7 7 C-8.02996094 7.09539062 -9.05992187 7.19078125 -10.12109375 7.2890625 C-15.77478726 7.79321351 -21.32414798 8.109151 -27 8 C-27 8.66 -27 9.32 -27 10 C-37.48003671 13.61450207 -37.48003671 13.61450207 -42.7734375 14.95703125 C-55.09186366 18.08395811 -65.73772635 23.71925334 -76.81787109 29.86425781 C-79 31 -79 31 -82 32 C-82.69216095 33.32027855 -83.35546398 34.65582905 -84 36 C-85.66064453 37.82421875 -85.66064453 37.82421875 -87.6328125 39.6875 C-88.35251221 40.379646 -89.07221191 41.07179199 -89.8137207 41.78491211 C-90.57644287 42.51589111 -91.33916504 43.24687012 -92.125 44 C-98.88340623 50.62815408 -104.08203883 56.91137723 -109 65 C-109.96751533 66.43234556 -110.94347491 67.85900741 -111.92578125 69.28125 C-122.73781806 84.96177734 -129.22768867 100.21314258 -133 119 C-133.17039795 119.75369873 -133.3407959 120.50739746 -133.51635742 121.28393555 C-134.01008291 124.05662411 -134.12936972 126.60764424 -134.1328125 129.421875 C-134.13410156 130.44796875 -134.13539063 131.4740625 -134.13671875 132.53125 C-134.13285156 133.5934375 -134.12898438 134.655625 -134.125 135.75 C-134.12886719 136.79671875 -134.13273437 137.8434375 -134.13671875 138.921875 C-134.36395318 150.93822991 -134.36395318 150.93822991 -130.5 162.0625 C-128.18887817 166.75058759 -127.58328793 170.89967943 -127.4375 176.0625 C-127.2736988 181.85239873 -126.50702838 186.47886163 -124.04296875 191.75390625 C-122.65353367 194.74613536 -121.74656081 197.83455927 -120.80859375 200.9921875 C-120.07057073 203.08692362 -120.07057073 203.08692362 -118.52734375 204.90625 C-116.70775223 207.4006261 -116.0057825 209.67087109 -115.125 212.625 C-113.50833695 217.75806246 -111.45235937 222.33267423 -108.85546875 227.0390625 C-108.57316406 227.68617188 -108.29085937 228.33328125 -108 229 C-108.33 229.66 -108.66 230.32 -109 231 C-132.83295905 201.94269711 -144.31396296 165.53521842 -142 128 C-141.41567966 122.24641628 -140.30422901 116.62892437 -139 111 C-138.70996094 109.72640625 -138.41992188 108.4528125 -138.12109375 107.140625 C-128.80863577 69.57907899 -104.99490337 38.90322208 -72.10253906 18.84277344 C-55.6515124 9.12875621 -37.87407166 3.55607688 -19 1 C-18.10925781 0.86980469 -17.21851563 0.73960938 -16.30078125 0.60546875 C-10.91561254 -0.09939626 -5.4226715 -0.36581514 0 0 Z " fill="#0B0B0B" transform="translate(253,106)"/>
<path d="M0 0 C0 3 0 3 -1.3984375 4.55078125 C-2.37683594 5.42283203 -2.37683594 5.42283203 -3.375 6.3125 C-27.58868053 29.75749226 -40.41347855 66.50926188 -41.203125 99.56640625 C-41.68208735 142.58149628 -27.40527607 180.49949177 2.58984375 211.6484375 C20.24621047 229.38075647 43.99724954 242.35643411 68 249 C69.00716064 249.29414795 69.00716064 249.29414795 70.03466797 249.59423828 C106.98291746 260.01335498 148.01948245 252.32147429 181 234 C190.80565114 228.37106789 200.78804665 221.52492383 208.6875 213.375 C209.8321875 212.199375 209.8321875 212.199375 211 211 C211.66 211 212.32 211 213 211 C213.35771484 210.15501953 213.35771484 210.15501953 213.72265625 209.29296875 C215.27637776 206.50387234 217.20059382 204.59235477 219.4375 202.3125 C228.24711366 192.80067076 234.97040046 181.43544741 241 170 C241.33 170.99 241.66 171.98 242 173 C244.31 168.71 246.62 164.42 249 160 C250 163 250 163 248.55859375 166.40625 C247.86234622 167.77636687 247.15459224 169.14067679 246.4375 170.5 C245.88376709 171.57423218 245.88376709 171.57423218 245.31884766 172.67016602 C244.22335094 174.7859597 243.11350168 176.89363883 242 179 C241.45214844 180.05058594 240.90429688 181.10117187 240.33984375 182.18359375 C236.05253672 190.24373096 231.64159945 197.66731216 225 204 C223.66137064 205.51617388 222.32877196 207.03767972 221 208.5625 C192.07306706 240.68235634 154.77317483 256.69866035 112 259 C112 259.33 112 259.66 112 260 C85.17093467 260.78677611 85.17093467 260.78677611 74.9296875 256.875 C71.86134312 255.95858781 69.30774588 256.03510406 66.13330078 256.11328125 C62.17704502 255.90319855 58.66075811 254.42799569 55 253 C54.17765869 252.68675781 53.35531738 252.37351562 52.50805664 252.05078125 C37.07739579 246.03601812 24.01318714 238.38039049 11.39404297 227.62158203 C8.50268764 225.17562401 5.5881079 223.00040051 2.375 221 C-6.70141597 215.15695464 -13.53385261 206.50808866 -20 198 C-20.98613281 196.77410156 -20.98613281 196.77410156 -21.9921875 195.5234375 C-48.13435685 161.85395091 -51.41680504 115.60014094 -47.9375 74.8125 C-47.81145386 73.02283813 -47.81145386 73.02283813 -47.68286133 71.19702148 C-46.80884366 62.30443602 -43.80289373 56.42610116 -39 49 C-37.62492864 46.41299165 -36.38030355 43.77169477 -35.125 41.125 C-27.24211296 25.10437873 -18.19880206 14.22369197 -3.77734375 3.375 C-1.89197328 1.97637738 -1.89197328 1.97637738 0 0 Z " fill="#0B0B0B" transform="translate(145,141)"/>
<path d="M0 0 C0 0.66 0 1.32 0 2 C-0.66 2 -1.32 2 -2 2 C-2 2.66 -2 3.32 -2 4 C-3.28293945 4.34611328 -3.28293945 4.34611328 -4.59179688 4.69921875 C-20.09517494 8.92361794 -34.9383034 13.03931794 -49 21 C-50.86018412 21.93450939 -52.73285234 22.83926067 -54.60888672 23.74145508 C-63.41678173 27.99723239 -70.75591176 32.13482038 -76.9921875 39.734375 C-79.45654919 42.51517223 -82.1721064 44.96511407 -84.9375 47.4375 C-93.25835979 54.94979795 -99.75384079 62.76657199 -105.81494141 72.18945312 C-107.13345242 74.20389023 -108.49113007 76.18820133 -109.85546875 78.171875 C-121.42237108 95.05314999 -130.45909545 111.49763075 -134.53515625 131.72265625 C-135.3607315 135.76728121 -136.35967158 139.77375119 -137.31640625 143.7890625 C-138.99308022 151.66463965 -139.15130789 159.22609374 -139.125 167.25 C-139.12886719 168.41402344 -139.13273437 169.57804688 -139.13671875 170.77734375 C-139.16515427 185.5688041 -139.16515427 185.5688041 -135 199.5625 C-132.55335565 205.40089247 -131.69629058 210.19550398 -131.75 216.5 C-131.71734618 231.26116027 -123.59089903 244.93220128 -117.07617188 257.81591797 C-115.78686312 260.43255956 -114.68338345 263.09492145 -113.625 265.8125 C-111.28823938 271.57601181 -108.42347349 276.88834621 -105.35546875 282.28515625 C-104 285 -104 285 -104 288 C-121.67067524 266.25366902 -134.54110529 242.41281167 -141.44873047 215.16503906 C-141.81464723 213.7279488 -142.19639327 212.29479164 -142.59423828 210.86621094 C-146.14240072 197.87465624 -146.37179987 184.93738414 -146.375 171.5625 C-146.37690338 170.70123505 -146.37880676 169.83997009 -146.38076782 168.9526062 C-146.37814368 158.45314777 -145.89214548 148.35129502 -144 138 C-143.75878418 136.66690796 -143.75878418 136.66690796 -143.51269531 135.30688477 C-134.86032655 90.83945434 -107.26324696 49.99412994 -69.859375 24.54345703 C-59.04299152 17.29344489 -48.01555353 11.02908104 -36 6 C-35.35095703 5.72510742 -34.70191406 5.45021484 -34.03320312 5.16699219 C-26.73273283 2.13192357 -21.74110313 0.55674348 -14 2 C-11.6348018 1.63118943 -9.37163326 1.07774369 -7.0546875 0.48046875 C-4.66285502 -0.07883809 -2.44763859 -0.15791217 0 0 Z " fill="#0A0A0A" transform="translate(220,75)"/>
<path d="M0 0 C1.58152021 0.18754781 3.16102975 0.39269555 4.73828125 0.61328125 C5.51623047 0.70544922 6.29417969 0.79761719 7.09570312 0.89257812 C12.20303295 1.53578647 17.08067848 2.59095365 22.05078125 3.92578125 C21.39078125 4.58578125 20.73078125 5.24578125 20.05078125 5.92578125 C21.92443359 6.40144531 21.92443359 6.40144531 23.8359375 6.88671875 C58.08818037 15.92726119 86.5491798 32.96141913 111.2890625 58.203125 C113.18476365 60.11673257 113.18476365 60.11673257 116.05078125 62.30078125 C116.71078125 62.83703125 117.37078125 63.37328125 118.05078125 63.92578125 C118.05078125 64.58578125 118.05078125 65.24578125 118.05078125 65.92578125 C118.71078125 65.92578125 119.37078125 65.92578125 120.05078125 65.92578125 C124.05078125 72.67578125 124.05078125 72.67578125 124.05078125 74.92578125 C124.61539063 75.11527344 125.18 75.30476563 125.76171875 75.5 C129.04720484 77.54642052 130.6905071 80.51221075 132.67578125 83.73828125 C133.07023438 84.35509766 133.4646875 84.97191406 133.87109375 85.60742188 C135.97355757 88.94934494 137.72544678 92.18491783 139.05078125 95.92578125 C138.39078125 96.58578125 137.73078125 97.24578125 137.05078125 97.92578125 C136.68839355 97.33152344 136.32600586 96.73726563 135.95263672 96.125 C134.28115963 93.38937221 132.60351791 90.6575742 130.92578125 87.92578125 C130.35601562 86.99121094 129.78625 86.05664062 129.19921875 85.09375 C124.1416088 76.63529594 124.1416088 76.63529594 118.05078125 68.92578125 C117.39078125 68.92578125 116.73078125 68.92578125 116.05078125 68.92578125 C116.60507812 69.62703125 117.159375 70.32828125 117.73046875 71.05078125 C118.45492187 71.99953125 119.179375 72.94828125 119.92578125 73.92578125 C120.64507812 74.85390625 121.364375 75.78203125 122.10546875 76.73828125 C123.96005549 79.77712217 124.70046911 82.26048389 125.44238281 85.70800781 C126.91608773 91.08005253 129.83995914 96.01416604 132.33007812 100.97265625 C139.90346346 116.36773463 139.90346346 116.36773463 138.05078125 121.92578125 C137.58929688 120.75144531 137.1278125 119.57710938 136.65234375 118.3671875 C129.50286841 99.85669007 129.50286841 99.85669007 118.05078125 83.92578125 C117.81359375 83.22839844 117.57640625 82.53101563 117.33203125 81.8125 C115.44134908 77.55270085 112.53171448 74.29170119 109.55078125 70.73828125 C108.92002686 69.98160156 108.28927246 69.22492188 107.6394043 68.4453125 C99.60467025 58.90208701 90.94737318 50.55358926 81.05078125 42.92578125 C80.52500488 42.51827637 79.99922852 42.11077148 79.45751953 41.69091797 C70.53746464 34.84210773 61.28980939 29.55053284 51.05078125 24.92578125 C50.31730469 24.59336426 49.58382812 24.26094727 48.828125 23.91845703 C43.29278769 21.43918609 37.70108965 19.12977866 32.05078125 16.92578125 C31.23512695 16.60689941 30.41947266 16.28801758 29.57910156 15.95947266 C15.31622568 10.50667841 0.33251432 6.93124904 -14.94921875 5.92578125 C-15.27921875 6.25578125 -15.60921875 6.58578125 -15.94921875 6.92578125 C-17.93907477 7.14359901 -19.93594563 7.29782209 -21.93359375 7.42578125 C-23.18011719 7.50828125 -24.42664063 7.59078125 -25.7109375 7.67578125 C-27.02707031 7.75828125 -28.34320313 7.84078125 -29.69921875 7.92578125 C-32.25654331 8.09194244 -34.81383528 8.25860603 -37.37109375 8.42578125 C-39.25344727 8.54759766 -39.25344727 8.54759766 -41.17382812 8.671875 C-46.76890654 9.04816067 -52.35921475 9.48104119 -57.94921875 9.92578125 C-57.94921875 9.26578125 -57.94921875 8.60578125 -57.94921875 7.92578125 C-58.90183594 8.15394531 -59.85445312 8.38210937 -60.8359375 8.6171875 C-62.71732422 9.04837891 -62.71732422 9.04837891 -64.63671875 9.48828125 C-65.87808594 9.77832031 -67.11945313 10.06835938 -68.3984375 10.3671875 C-71.71033329 10.88820081 -73.76782028 10.84431121 -76.94921875 9.92578125 C-76.94921875 9.26578125 -76.94921875 8.60578125 -76.94921875 7.92578125 C-59.68105435 2.62698314 -42.00219732 0.22745686 -23.94921875 0.92578125 C-23.94921875 1.25578125 -23.94921875 1.58578125 -23.94921875 1.92578125 C-20.05264872 2.76828288 -16.23628281 3.07035515 -12.26171875 3.17578125 C-11.32972656 3.2015625 -10.39773438 3.22734375 -9.4375 3.25390625 C-6.88998135 3.18782706 -6.88998135 3.18782706 -5.54052734 1.40063477 C-3.94921875 -0.07421875 -3.94921875 -0.07421875 0 0 Z " fill="#191919" transform="translate(277.94921875,67.07421875)"/>
<path d="M0 0 C0.495 0.495 0.495 0.495 1 1 C2.6982708 1.19242048 4.40351088 1.32396633 6.109375 1.4296875 C7.16785645 1.50098877 8.22633789 1.57229004 9.31689453 1.64575195 C10.44981934 1.72140381 11.58274414 1.79705566 12.75 1.875 C21.79223091 2.54754688 30.30029037 3.34975733 39 6 C40.16917969 6.33773437 41.33835937 6.67546875 42.54296875 7.0234375 C77.81931693 17.91706626 106.56155437 43.35899479 124.2265625 75.48046875 C128.63245051 84.22431258 131.9072113 93.27018025 134.75 102.625 C135.04813599 103.59046753 135.04813599 103.59046753 135.35229492 104.57543945 C138.60074911 115.77446089 139.35062401 127.08741296 139.31567383 138.68310547 C139.31251293 140.86606868 139.33608356 143.04767145 139.36132812 145.23046875 C139.40379299 154.85610971 138.25234485 163.63371496 136 173 C135.65014038 174.48922974 135.65014038 174.48922974 135.29321289 176.00854492 C129.66537997 199.15728938 117.40098122 219.930137 101 237 C100.55962402 237.47147461 100.11924805 237.94294922 99.66552734 238.42871094 C79.40771858 260.08871238 47.78735386 278.63787481 17.609375 280.1171875 C15.73918678 280.12372662 13.86891826 280.06921919 12 280 C12 279.67 12 279.34 12 279 C13.258125 278.76925781 14.51625 278.53851563 15.8125 278.30078125 C35.10049892 274.66865022 54.18460342 269.49663198 71 259 C71.66 258.01 72.32 257.02 73 256 C74.8125 254.9296875 74.8125 254.9296875 77 253.875 C82.81582895 250.74910789 87.2649916 246.55449488 92 242 C92.96164062 241.113125 93.92328125 240.22625 94.9140625 239.3125 C102.96433081 231.74584904 109.1399224 223.33870467 115 214 C115.38172363 213.39365723 115.76344727 212.78731445 116.15673828 212.16259766 C136.03494556 180.12922492 140.53654671 141.24450724 132.484375 104.796875 C131.027129 98.73954761 129.06670418 92.87338139 127 87 C127.23968506 87.8053418 127.47937012 88.61068359 127.72631836 89.44042969 C130.22265625 97.828125 130.22265625 97.828125 129 102 C128.59910156 100.80246094 128.19820312 99.60492188 127.78515625 98.37109375 C124.41852399 88.62415034 120.60173429 79.87445521 115.015625 71.19921875 C113 68 113 68 111.4765625 64.8984375 C104.18296978 50.58138512 89.00294054 37.88959203 76 29 C75.06542969 28.33613281 74.13085938 27.67226562 73.16796875 26.98828125 C54.46484607 14.51136193 26.70155003 4.26769193 4 5 C4 5.33 4 5.66 4 6 C-5.24 6.66 -14.48 7.32 -24 8 C-24 7.34 -24 6.68 -24 6 C-24.74765625 6.15597656 -25.4953125 6.31195313 -26.265625 6.47265625 C-27.25046875 6.66730469 -28.2353125 6.86195312 -29.25 7.0625 C-30.71179688 7.35833984 -30.71179688 7.35833984 -32.203125 7.66015625 C-34.88745074 7.98632432 -36.50693427 8.00065712 -39 7 C-39.33 6.34 -39.66 5.68 -40 5 C-27.36374005 1.70358436 -13.13521245 -1.30744013 0 0 Z " fill="#0F0F0F" transform="translate(253,106)"/>
<path d="M0 0 C1 3 1 3 -0.44140625 6.40625 C-1.13765378 7.77636687 -1.84540776 9.14067679 -2.5625 10.5 C-2.93165527 11.21615479 -3.30081055 11.93230957 -3.68115234 12.67016602 C-4.77664906 14.7859597 -5.88649832 16.89363883 -7 19 C-7.54785156 20.05058594 -8.09570312 21.10117187 -8.66015625 22.18359375 C-12.94746328 30.24373096 -17.35840055 37.66731216 -24 44 C-25.33862936 45.51617388 -26.67122804 47.03767972 -28 48.5625 C-56.92693294 80.68235634 -94.22682517 96.69866035 -137 99 C-137 99.33 -137 99.66 -137 100 C-151.82312869 100.55145568 -165.17703291 100.84657218 -179 95 C-179 94.34 -179 93.68 -179 93 C-180.98 92.67 -182.96 92.34 -185 92 C-179.90384029 89.03579077 -175.2695174 90.29257071 -169.70043945 91.49755859 C-161.24278918 93.30398187 -152.85402872 93.39887957 -144.25 93.375 C-143.47954346 93.37412384 -142.70908691 93.37324768 -141.9152832 93.37234497 C-105.141604 93.23483859 -69.00454263 80.64661803 -41.9140625 55.02734375 C-41.38554687 54.48207031 -40.85703125 53.93679688 -40.3125 53.375 C-39.549375 52.59125 -38.78625 51.8075 -38 51 C-37.34 51 -36.68 51 -36 51 C-35.76152344 50.43667969 -35.52304687 49.87335938 -35.27734375 49.29296875 C-33.72362224 46.50387234 -31.79940618 44.59235477 -29.5625 42.3125 C-20.75288634 32.80067076 -14.02959954 21.43544741 -8 10 C-7.67 10.99 -7.34 11.98 -7 13 C-4.69 8.71 -2.38 4.42 0 0 Z " fill="#0F0F0F" transform="translate(394,301)"/>
<path d="M0 0 C3.114375 -0.061875 6.22875 -0.12375 9.4375 -0.1875 C10.39970459 -0.21481201 11.36190918 -0.24212402 12.35327148 -0.27026367 C18.76305756 -0.33108503 25.66379508 0.12296659 30.72241211 4.48535156 C32.84386853 7.00045106 32.53538212 9.28662073 32.390625 12.4609375 C31.64188397 17.32775419 30.11478805 21.16190343 27 25 C19.03346599 30.76681939 9.71810632 33 0 33 C0 22.11 0 11.22 0 0 Z " fill="#FCFAFB" transform="translate(237,270)"/>
<path d="M0 0 C21.3206305 -1.48748585 43.77741824 11.77378219 61.765625 21.7734375 C63.20784237 22.56514424 64.66711765 23.32687549 66.14453125 24.05078125 C69.69889025 25.86911649 72.5039312 28.50056231 75.30078125 31.31640625 C78.03129171 34.03111057 80.8687904 36.57154705 83.75 39.125 C89.45873452 44.28845407 94.35557931 49.84952444 99 56 C99.59167969 56.77601563 100.18335938 57.55203125 100.79296875 58.3515625 C114.26451455 76.78630938 123.10751587 97.78236617 128 120 C128.36931641 121.62035156 128.36931641 121.62035156 128.74609375 123.2734375 C134.32250014 152.57841455 127.44604799 184.32989717 115 211 C114.34 211 113.68 211 113 211 C113.391875 209.824375 113.78375 208.64875 114.1875 207.4375 C114.46078125 206.61121094 114.7340625 205.78492188 115.015625 204.93359375 C115.71905978 202.83724646 116.43976733 200.7466631 117.171875 198.66015625 C130.52742291 160.03624145 128.72247957 119.09796575 111.06640625 82.04052734 C104.34913481 68.23318984 95.62889688 56.07548918 85 45 C84.18144531 44.11828125 83.36289062 43.2365625 82.51953125 42.328125 C59.95843199 18.73394734 31.34746142 7.71841889 0 1 C0 0.67 0 0.34 0 0 Z " fill="#333333" transform="translate(274,99)"/>
<path d="M0 0 C12.74646226 3.36364976 12.74646226 3.36364976 16.8125 7.4296875 C16.9375 9.8046875 16.9375 9.8046875 15.8125 12.4296875 C13.30116892 14.14089682 10.6210458 15.28933823 7.8125 16.4296875 C7.04470215 16.75606201 6.2769043 17.08243652 5.48583984 17.41870117 C2.91868647 18.38953059 0.52873663 18.99305288 -2.1640625 19.5 C-3.081875 19.67402344 -3.9996875 19.84804687 -4.9453125 20.02734375 C-5.89148438 20.20136719 -6.83765625 20.37539062 -7.8125 20.5546875 C-8.76640625 20.73644531 -9.7203125 20.91820312 -10.703125 21.10546875 C-17.77226269 22.4296875 -17.77226269 22.4296875 -21.1875 22.4296875 C-21.2743329 18.9715115 -21.32783282 15.51361406 -21.375 12.0546875 C-21.40013672 11.06984375 -21.42527344 10.085 -21.45117188 9.0703125 C-21.46083984 8.12929687 -21.47050781 7.18828125 -21.48046875 6.21875 C-21.4961792 5.34943848 -21.51188965 4.48012695 -21.52807617 3.58447266 C-21.41568604 2.87339355 -21.3032959 2.16231445 -21.1875 1.4296875 C-15.4618548 -2.3874093 -6.60811651 -1.18233457 0 0 Z " fill="#FBFAFB" transform="translate(259.1875,210.5703125)"/>
<path d="M0 0 C9.9911759 11.69698641 14.85447464 27.44151623 19 42 C19.1949707 42.67482422 19.38994141 43.34964844 19.59082031 44.04492188 C22.443956 54.53005913 22.30304102 65.34031088 22.375 76.125 C22.38312714 76.84593842 22.39125427 77.56687683 22.39962769 78.30966187 C22.48634217 88.59329798 21.39464769 97.98629441 19 108 C18.76684082 108.99314209 18.53368164 109.98628418 18.29345703 111.00952148 C12.66112139 134.1583756 0.40230514 154.92875909 -16 172 C-16.44037598 172.47147461 -16.88075195 172.94294922 -17.33447266 173.42871094 C-37.59228142 195.08871238 -69.21264614 213.63787481 -99.390625 215.1171875 C-101.26081322 215.12372662 -103.13108174 215.06921919 -105 215 C-105 214.67 -105 214.34 -105 214 C-103.1128125 213.65388672 -103.1128125 213.65388672 -101.1875 213.30078125 C-81.89950108 209.66865022 -62.81539658 204.49663198 -46 194 C-45.34 193.01 -44.68 192.02 -44 191 C-42.1875 189.9296875 -42.1875 189.9296875 -40 188.875 C-34.18417105 185.74910789 -29.7350084 181.55449488 -25 177 C-24.03835938 176.113125 -23.07671875 175.22625 -22.0859375 174.3125 C-14.03566919 166.74584904 -7.8600776 158.33870467 -2 149 C-1.61827637 148.39365723 -1.23655273 147.78731445 -0.84326172 147.16259766 C19.03494556 115.12922492 23.53654671 76.24450724 15.484375 39.796875 C14.22654082 34.55410747 12.56716979 29.49088718 10.77832031 24.40722656 C10 22 10 22 10 20 C9.34 20 8.68 20 8 20 C6.65722268 17.2336466 5.32744772 14.46123789 4 11.6875 C3.42765625 10.50897461 3.42765625 10.50897461 2.84375 9.30664062 C2.4828125 8.54931641 2.121875 7.79199219 1.75 7.01171875 C1.24726563 5.96697388 1.24726563 5.96697388 0.734375 4.90112305 C0 3 0 3 0 0 Z " fill="#1C1C1C" transform="translate(370,171)"/>
<path d="M0 0 C9.65889261 14.48833891 9.57131879 38.47337161 9.4375 55.25 C9.43144241 56.52792419 9.43144241 56.52792419 9.42526245 57.83166504 C9.10863566 105.60377888 -10.69790228 146.63708596 -43 181 C-43.93199219 182.03060547 -43.93199219 182.03060547 -44.8828125 183.08203125 C-55.08407831 193.94660807 -68.13213554 202.63264755 -81 210 C-82.55460937 210.91652344 -82.55460937 210.91652344 -84.140625 211.8515625 C-89.72288421 215.05186294 -89.72288421 215.05186294 -92 216 C-92.99 215.67 -93.98 215.34 -95 215 C-93.89140625 214.39671875 -92.7828125 213.7934375 -91.640625 213.171875 C-90.17688567 212.36494178 -88.71335492 211.55763014 -87.25 210.75 C-86.52039063 210.35425781 -85.79078125 209.95851563 -85.0390625 209.55078125 C-81.13151793 207.38387017 -78.05945329 205.31259955 -75 202 C-73.00934459 200.98152514 -71.00751815 199.98482022 -69 199 C-62.41680195 195.05428304 -56.87574894 190.38694289 -51.375 185.0625 C-50.6634375 184.38509766 -49.951875 183.70769531 -49.21875 183.00976562 C-47.13390589 181.01847221 -45.06586977 179.01094786 -43 177 C-42.38576172 176.41492676 -41.77152344 175.82985352 -41.13867188 175.22705078 C-36.83695489 171.06168922 -33.22582533 166.62047662 -29.75 161.75 C-29.19352783 160.97132568 -28.63705566 160.19265137 -28.0637207 159.39038086 C-11.39546977 135.679207 -0.11668491 109.725602 4 81 C4.10441406 80.30745117 4.20882812 79.61490234 4.31640625 78.90136719 C7.88315639 54.66778319 6.69044839 30.20465456 0.55078125 6.49609375 C0 4 0 4 0 0 Z " fill="#191919" transform="translate(421,192)"/>
<path d="M0 0 C1.58152021 0.18754781 3.16102975 0.39269555 4.73828125 0.61328125 C5.51623047 0.70544922 6.29417969 0.79761719 7.09570312 0.89257812 C12.20303295 1.53578647 17.08067848 2.59095365 22.05078125 3.92578125 C21.39078125 4.58578125 20.73078125 5.24578125 20.05078125 5.92578125 C20.65027588 6.09182861 21.24977051 6.25787598 21.86743164 6.42895508 C24.61746856 7.19372371 27.36536128 7.96594228 30.11328125 8.73828125 C31.05623047 8.99931641 31.99917969 9.26035156 32.97070312 9.52929688 C38.19473322 11.00367471 43.12143844 12.64912223 48.05078125 14.92578125 C47.72078125 15.58578125 47.39078125 16.24578125 47.05078125 16.92578125 C41.98053402 15.47399679 37.01757229 13.93308632 32.11328125 11.98828125 C21.03521764 7.88529473 8.81367482 5.69711853 -2.94921875 4.92578125 C-2.94921875 5.58578125 -2.94921875 6.24578125 -2.94921875 6.92578125 C-7.23921875 6.59578125 -11.52921875 6.26578125 -15.94921875 5.92578125 C-15.94921875 6.25578125 -15.94921875 6.58578125 -15.94921875 6.92578125 C-16.75963623 6.98113037 -17.57005371 7.03647949 -18.4050293 7.09350586 C-21.47846444 7.30367957 -24.5518648 7.5143538 -27.62524414 7.7253418 C-29.58281952 7.85958504 -31.54043269 7.99327689 -33.49804688 8.12695312 C-41.65169868 8.68712768 -49.80152555 9.28469939 -57.94921875 9.92578125 C-57.94921875 9.26578125 -57.94921875 8.60578125 -57.94921875 7.92578125 C-58.90183594 8.15394531 -59.85445312 8.38210937 -60.8359375 8.6171875 C-62.71732422 9.04837891 -62.71732422 9.04837891 -64.63671875 9.48828125 C-65.87808594 9.77832031 -67.11945313 10.06835938 -68.3984375 10.3671875 C-71.71033329 10.88820081 -73.76782028 10.84431121 -76.94921875 9.92578125 C-76.94921875 9.26578125 -76.94921875 8.60578125 -76.94921875 7.92578125 C-59.68105435 2.62698314 -42.00219732 0.22745686 -23.94921875 0.92578125 C-23.94921875 1.25578125 -23.94921875 1.58578125 -23.94921875 1.92578125 C-20.05264872 2.76828288 -16.23628281 3.07035515 -12.26171875 3.17578125 C-11.32972656 3.2015625 -10.39773438 3.22734375 -9.4375 3.25390625 C-6.88998135 3.18782706 -6.88998135 3.18782706 -5.54052734 1.40063477 C-3.94921875 -0.07421875 -3.94921875 -0.07421875 0 0 Z " fill="#1E1E1E" transform="translate(277.94921875,67.07421875)"/>
<path d="M0 0 C4.82809032 4.46144929 7.3322922 9.77612681 10.3125 15.5625 C10.88991943 16.68277588 11.46733887 17.80305176 12.06225586 18.95727539 C19.75246654 34.14395322 24.93543292 49.27611832 28 66 C28.22429687 67.16088135 28.22429687 67.16088135 28.453125 68.34521484 C31.0960421 82.25755322 31.3567782 95.86792403 31 110 C28.1365346 106.79144181 27.63209301 104.74044918 27.62890625 100.4765625 C27.61424316 99.3834375 27.59958008 98.2903125 27.58447266 97.1640625 C27.57359619 95.41222656 27.57359619 95.41222656 27.5625 93.625 C27.23363007 78.00682032 25.11934375 62.8878672 20.515625 47.92578125 C20 46 20 46 20 43 C19.01 43 18.02 43 17 43 C16.67 44.32 16.34 45.64 16 47 C14.89833957 43.30156854 13.92271104 39.66308735 13.1875 35.875 C10.92579835 25.59295636 6.26920609 16.22637647 1.35546875 6.99609375 C0 4 0 4 0 0 Z " fill="#CDCDCD" transform="translate(402,149)"/>
<path d="M0 0 C0.99 0.33 1.98 0.66 3 1 C4.0625 3.5546875 4.0625 3.5546875 5 6.875 C5.33773438 8.05835938 5.67546875 9.24171875 6.0234375 10.4609375 C6.34570312 11.62882813 6.66796875 12.79671875 7 14 C7.28101563 14.94101563 7.56203125 15.88203125 7.8515625 16.8515625 C17.43141323 49.65529378 11.25284708 85.45818483 -3 116 C-3.66 116 -4.32 116 -5 116 C-4.4121875 114.2365625 -4.4121875 114.2365625 -3.8125 112.4375 C-3.53921875 111.61121094 -3.2659375 110.78492188 -2.984375 109.93359375 C-2.28094022 107.83724646 -1.56023267 105.7466631 -0.828125 103.66015625 C10.24650552 71.63259823 10.01278263 40.79848682 1.51904297 8.12548828 C0.86266039 5.43759236 0.39615505 2.73747594 0 0 Z " fill="#232323" transform="translate(392,194)"/>
<path d="M0 0 C0.495 1.485 0.495 1.485 1 3 C-2.97180897 7.35997878 -6.9742987 11.68975017 -11 16 C-11.46937988 16.5062793 -11.93875977 17.01255859 -12.42236328 17.53417969 C-32.16626891 38.68991576 -64.05875397 56.67935068 -93.390625 58.1171875 C-95.26081322 58.12372662 -97.13108174 58.06921919 -99 58 C-99 57.67 -99 57.34 -99 57 C-97.1128125 56.65388672 -97.1128125 56.65388672 -95.1875 56.30078125 C-75.89950108 52.66865022 -56.81539658 47.49663198 -40 37 C-39.34 36.01 -38.68 35.02 -38 34 C-36.1875 32.9296875 -36.1875 32.9296875 -34 31.875 C-28.18825173 28.75130117 -23.72162086 24.56377597 -19 20 C-18.24203125 19.27272705 -18.24203125 19.27272705 -17.46875 18.53076172 C-11.75971037 13.03336235 -6.41473664 7.62210496 -2 1 C-1.34 0.67 -0.68 0.34 0 0 Z " fill="#3B3B3B" transform="translate(364,328)"/>
<path d="M0 0 C0.495 0.495 0.495 0.495 1 1 C2.51469448 1.23192865 4.03754562 1.41215238 5.5625 1.5625 C6.38878906 1.64628906 7.21507812 1.73007813 8.06640625 1.81640625 C8.70449219 1.87699219 9.34257812 1.93757813 10 2 C9.071875 2.433125 9.071875 2.433125 8.125 2.875 C5.86674235 3.93720042 5.86674235 3.93720042 4 6 C1.20263672 6.41064453 1.20263672 6.41064453 -2.3203125 6.6328125 C-3.57714844 6.71660156 -4.83398438 6.80039063 -6.12890625 6.88671875 C-7.46092561 6.966345 -8.79295704 7.04576948 -10.125 7.125 C-11.46489861 7.21139288 -12.80474357 7.29862222 -14.14453125 7.38671875 C-17.42925119 7.59939846 -20.71428176 7.80345098 -24 8 C-24 7.34 -24 6.68 -24 6 C-24.74765625 6.15597656 -25.4953125 6.31195313 -26.265625 6.47265625 C-27.25046875 6.66730469 -28.2353125 6.86195312 -29.25 7.0625 C-30.71179688 7.35833984 -30.71179688 7.35833984 -32.203125 7.66015625 C-34.88745074 7.98632432 -36.50693427 8.00065712 -39 7 C-39.33 6.34 -39.66 5.68 -40 5 C-27.36374005 1.70358436 -13.13521245 -1.30744013 0 0 Z " fill="#1C1C1C" transform="translate(253,106)"/>
<path d="M0 0 C0.33 0 0.66 0 1 0 C1.58899947 19.65989603 1.28521715 37.87881175 -4 57 C-4.19174805 57.71639648 -4.38349609 58.43279297 -4.58105469 59.17089844 C-6.1979338 65.1347968 -8.15058864 70.51045608 -11 76 C-11.99 76 -12.98 76 -14 76 C-12.53834395 71.08116457 -11.06306618 66.16893314 -9.5 61.28125 C-3.06954704 40.97012072 -1.26402629 21.23654949 0 0 Z " fill="#EFEFEF" transform="translate(431,239)"/>
<path d="M0 0 C20.85572995 24.41646433 22.58208868 58.62691128 22 89 C21.01 89 20.02 89 19 89 C19.02618408 88.22213135 19.05236816 87.4442627 19.0793457 86.64282227 C19.70852558 64.94009879 18.03506927 45.11395799 10.77832031 24.42041016 C10 22 10 22 10 20 C9.34 20 8.68 20 8 20 C6.65722268 17.2336466 5.32744772 14.46123789 4 11.6875 C3.42765625 10.50897461 3.42765625 10.50897461 2.84375 9.30664062 C2.4828125 8.54931641 2.121875 7.79199219 1.75 7.01171875 C1.41484375 6.31522217 1.0796875 5.61872559 0.734375 4.90112305 C0 3 0 3 0 0 Z " fill="#080808" transform="translate(370,171)"/>
<path d="M0 0 C8.57456547 3.93650506 15.31792814 11.09320287 21.80078125 17.78662109 C24.0604327 20.11151384 26.298782 22.23379385 28.85546875 24.234375 C29.56316406 24.81703125 30.27085937 25.3996875 31 26 C31 26.66 31 27.32 31 28 C31.66 28 32.32 28 33 28 C37 34.75 37 34.75 37 37 C37.56460938 37.18949219 38.12921875 37.37898438 38.7109375 37.57421875 C41.99642359 39.62063927 43.63972585 42.5864295 45.625 45.8125 C46.01945312 46.42931641 46.41390625 47.04613281 46.8203125 47.68164062 C48.92277632 51.02356369 50.67466553 54.25913658 52 58 C51.34 58.66 50.68 59.32 50 60 C49.65332275 59.42145264 49.30664551 58.84290527 48.94946289 58.24682617 C39.45013363 42.42174411 39.45013363 42.42174411 28 28 C27.15050781 27.03191406 26.30101562 26.06382812 25.42578125 25.06640625 C19.86633374 18.80052067 13.97150764 13.05270831 7.7265625 7.47265625 C5.05978221 5.0542151 2.52393973 2.56524056 0 0 Z " fill="#D5D5D5" transform="translate(365,105)"/>
<path d="M0 0 C4.08748431 1.16785266 5.82231287 2.87834063 8.37890625 6.18359375 C10.41002528 8.45942591 12.66958799 10.23332925 15.0625 12.125 C19.41840009 15.61326145 23.48426346 19.25811129 27.4375 23.1875 C27.9332251 23.67428223 28.4289502 24.16106445 28.93969727 24.66259766 C32.13823183 27.88677287 34.60275116 31.17460291 37 35 C36.34 35.99 35.68 36.98 35 38 C33.82739389 36.71372289 32.6620717 35.42080217 31.5 34.125 C30.8503125 33.40570313 30.200625 32.68640625 29.53125 31.9453125 C28 30 28 30 28 28 C27.34 28 26.68 28 26 28 C24.625 26.56640625 24.625 26.56640625 23 24.5625 C19.33810325 20.21932013 15.25254007 16.57072727 10.94140625 12.8828125 C10.30074219 12.26148437 9.66007812 11.64015625 9 11 C9 10.34 9 9.68 9 9 C8.278125 8.773125 7.55625 8.54625 6.8125 8.3125 C3.46790687 6.75168987 1.48396041 4.6968713 -1 2 C-0.67 1.34 -0.34 0.68 0 0 Z " fill="#373737" transform="translate(358,100)"/>
<path d="M0 0 C1.58152021 0.18754781 3.16102975 0.39269555 4.73828125 0.61328125 C5.90520508 0.7515332 5.90520508 0.7515332 7.09570312 0.89257812 C12.20303295 1.53578647 17.08067848 2.59095365 22.05078125 3.92578125 C21.39078125 4.58578125 20.73078125 5.24578125 20.05078125 5.92578125 C20.95002319 6.17485229 20.95002319 6.17485229 21.86743164 6.42895508 C24.61746856 7.19372371 27.36536128 7.96594228 30.11328125 8.73828125 C31.05623047 8.99931641 31.99917969 9.26035156 32.97070312 9.52929688 C38.19473322 11.00367471 43.12143844 12.64912223 48.05078125 14.92578125 C47.72078125 15.58578125 47.39078125 16.24578125 47.05078125 16.92578125 C45.61193419 16.51379034 44.1748077 16.09579209 42.73828125 15.67578125 C41.93777344 15.44375 41.13726562 15.21171875 40.3125 14.97265625 C38.43306301 14.36943575 36.5616838 13.73565929 34.72192383 13.02050781 C27.38141341 10.18386783 20.09877993 8.55696518 12.36328125 7.17578125 C11.17283203 6.95535156 9.98238281 6.73492187 8.75585938 6.5078125 C5.85560244 5.97202206 2.95406813 5.44485472 0.05078125 4.92578125 C0.05078125 4.26578125 0.05078125 3.60578125 0.05078125 2.92578125 C-2.25921875 2.92578125 -4.56921875 2.92578125 -6.94921875 2.92578125 C-4.45479748 -0.06917653 -4.24830919 -0.07983964 0 0 Z " fill="#AEAEAE" transform="translate(277.94921875,67.07421875)"/>
<path d="M0 0 C0 3.53164414 -0.40518651 3.78866691 -2.7890625 6.1875 C-3.69652222 7.10402344 -3.69652222 7.10402344 -4.62231445 8.0390625 C-5.28320068 8.68617188 -5.94408691 9.33328125 -6.625 10 C-7.30071045 10.66773438 -7.9764209 11.33546875 -8.67260742 12.0234375 C-15.05720555 18.23186265 -21.83148283 23.73031241 -29 29 C-29.90621094 29.66644531 -30.81242187 30.33289063 -31.74609375 31.01953125 C-34.13467757 32.72992122 -36.54952445 34.37978426 -39 36 C-39.86625 36.58007812 -40.7325 37.16015625 -41.625 37.7578125 C-49.58968192 42.85426075 -49.58968192 42.85426075 -55 42 C-52.84724292 39.84724292 -50.94709023 38.83791223 -48.25 37.4375 C-29.94425943 27.58795455 -14.49433879 14.82375558 0 0 Z " fill="#525252" transform="translate(385,370)"/>
<path d="M0 0 C3.15828169 2.84643455 4.75185359 5.22412014 6.25 9.1875 C8.65316118 15.27401104 11.38418709 21.14924776 14.23339844 27.03588867 C19.19024844 37.38288825 19.19024844 37.38288825 18.75 41.125 C17.94001142 43.14997145 17.0298114 45.07768539 16 47 C14.89833957 43.30156854 13.92271104 39.66308735 13.1875 35.875 C10.92579835 25.59295636 6.26920609 16.22637647 1.35546875 6.99609375 C0 4 0 4 0 0 Z " fill="#686868" transform="translate(402,149)"/>
<path d="M0 0 C0.66 0.33 1.32 0.66 2 1 C1.58654644 9.48667832 0.18632924 17.22664889 -2.1875 25.375 C-2.49631104 26.459021 -2.80512207 27.54304199 -3.12329102 28.65991211 C-5.48794407 36.74785992 -8.30125298 44.42637514 -12 52 C-12.66 52 -13.32 52 -14 52 C-13.608125 50.824375 -13.21625 49.64875 -12.8125 48.4375 C-12.53921875 47.61121094 -12.2659375 46.78492188 -11.984375 45.93359375 C-11.28094022 43.83724646 -10.56023267 41.7466631 -9.828125 39.66015625 C-5.69298784 27.70144169 -1.92661924 15.3873883 -1.17578125 2.6875 C-1 1 -1 1 0 0 Z " fill="#252525" transform="translate(401,258)"/>
<path d="M0 0 C-1.35618885 3.14064786 -2.74644379 4.88287546 -5.45703125 6.953125 C-6.15103027 7.48607178 -6.8450293 8.01901855 -7.56005859 8.56811523 C-8.30336426 9.12313721 -9.04666992 9.67815918 -9.8125 10.25 C-10.958396 11.11443726 -10.958396 11.11443726 -12.12744141 11.99633789 C-18.52247683 16.76222235 -25.0747206 21.03500843 -32 25 C-33.55460937 25.91652344 -33.55460937 25.91652344 -35.140625 26.8515625 C-40.72288421 30.05186294 -40.72288421 30.05186294 -43 31 C-43.99 30.67 -44.98 30.34 -46 30 C-44.89140625 29.39671875 -43.7828125 28.7934375 -42.640625 28.171875 C-41.17688567 27.36494178 -39.71335492 26.55763014 -38.25 25.75 C-37.52039063 25.35425781 -36.79078125 24.95851563 -36.0390625 24.55078125 C-32.13151793 22.38387017 -29.05945329 20.31259955 -26 17 C-24.00934459 15.98152514 -22.00751815 14.98482022 -20 14 C-14.03732778 10.433647 -8.90136091 6.2986362 -3.84765625 1.5390625 C-2 0 -2 0 0 0 Z " fill="#2D2D2D" transform="translate(372,377)"/>
<path d="M0 0 C1.57873478 0.05841757 3.15751138 0.11571608 4.73632812 0.171875 C8.55398899 0.31005906 12.37076846 0.46323887 16.1875 0.625 C16.1875 0.955 16.1875 1.285 16.1875 1.625 C15.37708252 1.68034912 14.56666504 1.73569824 13.73168945 1.79272461 C10.65825431 2.00289832 7.58485395 2.21357255 4.51147461 2.42456055 C2.55389923 2.55880379 0.59628606 2.69249564 -1.36132812 2.82617188 C-9.51497993 3.38634643 -17.6648068 3.98391814 -25.8125 4.625 C-25.8125 3.965 -25.8125 3.305 -25.8125 2.625 C-27.4625 2.625 -29.1125 2.625 -30.8125 2.625 C-30.8125 2.295 -30.8125 1.965 -30.8125 1.625 C-20.37927875 -0.49541467 -10.5743827 -0.45240396 0 0 Z " fill="#2C2C2C" transform="translate(245.8125,72.375)"/>
<path d="M0 0 C7.85098945 9.19140228 12.20674573 20.87125004 16.0625 32.1875 C16.37356689 33.08404297 16.68463379 33.98058594 17.00512695 34.90429688 C17.28316162 35.75443359 17.56119629 36.60457031 17.84765625 37.48046875 C18.09523682 38.23223389 18.34281738 38.98399902 18.59790039 39.75854492 C19.07617822 42.42464618 18.67170225 44.39604288 18 47 C15.97161008 43.4140964 15.02988471 39.7247113 14 35.75 C13.82629883 35.08411865 13.65259766 34.4182373 13.47363281 33.73217773 C12.28534337 29.16239108 11.12315266 24.5862067 10 20 C9.34 20 8.68 20 8 20 C6.65722268 17.2336466 5.32744772 14.46123789 4 11.6875 C3.42765625 10.50897461 3.42765625 10.50897461 2.84375 9.30664062 C2.4828125 8.54931641 2.121875 7.79199219 1.75 7.01171875 C1.41484375 6.31522217 1.0796875 5.61872559 0.734375 4.90112305 C0 3 0 3 0 0 Z " fill="#3B3B3B" transform="translate(370,171)"/>
<path d="M0 0 C1.42600325 4.27800976 -0.54362936 6.86765922 -2.4375 10.6875 C-2.77587891 11.38939453 -3.11425781 12.09128906 -3.46289062 12.81445312 C-4.29981348 14.54723706 -5.14877393 16.27419752 -6 18 C-6.33 17.34 -6.66 16.68 -7 16 C-7.66 16 -8.32 16 -9 16 C-9.23847656 16.68449219 -9.47695313 17.36898438 -9.72265625 18.07421875 C-11.25937521 21.59410407 -13.26544189 24.66494569 -15.4375 27.8125 C-16.03014648 28.7087207 -16.03014648 28.7087207 -16.63476562 29.62304688 C-17.67672366 31.14004069 -18.83189159 32.57786445 -20 34 C-20.99 34 -21.98 34 -23 34 C-22.33613281 33.02160156 -21.67226563 32.04320312 -20.98828125 31.03515625 C-16.35981612 24.17645339 -11.79404089 17.36842678 -8 10 C-7.67 10.99 -7.34 11.98 -7 13 C-4.69 8.71 -2.38 4.42 0 0 Z " fill="#363636" transform="translate(394,301)"/>
<path d="M0 0 C4.46742371 3.06587902 8.1725547 6.14432871 12 10 C13.00736834 10.91397432 14.02193533 11.82006718 15.04296875 12.71875 C15.81737305 13.40517578 15.81737305 13.40517578 16.60742188 14.10546875 C17.66741076 15.04098428 18.73260986 15.97062689 19.80273438 16.89453125 C22.92835589 19.68596682 24.80674266 21.95903035 26 26 C23.10044132 24.6932781 21.09202528 23.31843031 18.8984375 21.0234375 C18.33012207 20.43836426 17.76180664 19.85329102 17.17626953 19.25048828 C16.58185059 18.63157715 15.98743164 18.01266602 15.375 17.375 C9.88860749 11.76185439 4.31342211 6.68415189 -2 2 C-1.34 1.34 -0.68 0.68 0 0 Z " fill="#2D2D2D" transform="translate(340,123)"/>
<path d="M0 0 C0.33 0.66 0.66 1.32 1 2 C1.87785156 2.34611328 1.87785156 2.34611328 2.7734375 2.69921875 C6.07763847 4.62956774 7.66678516 7.63040088 9.625 10.8125 C10.01945312 11.42931641 10.41390625 12.04613281 10.8203125 12.68164062 C12.92277632 16.02356369 14.67466553 19.25913658 16 23 C15.34 23.66 14.68 24.32 14 25 C13.42499756 24.06933716 13.42499756 24.06933716 12.83837891 23.11987305 C11.10112765 20.30874684 9.36307307 17.49811816 7.625 14.6875 C7.02171875 13.71103516 6.4184375 12.73457031 5.796875 11.72851562 C5.21679688 10.79072266 4.63671875 9.85292969 4.0390625 8.88671875 C3.50490723 8.02264404 2.97075195 7.15856934 2.42041016 6.26831055 C1.3091945 4.49376523 0.16140648 2.74210972 -1 1 C-0.67 0.67 -0.34 0.34 0 0 Z " fill="#8E8E8E" transform="translate(401,140)"/>
<path d="M0 0 C10.34289168 0.90144469 20.67063138 1.95719673 31 3 C31 3.33 31 3.66 31 4 C35.95 4.33 40.9 4.66 46 5 C46 5.33 46 5.66 46 6 C41.58338849 6.05804281 37.16687504 6.09361104 32.75 6.125 C31.49574219 6.14175781 30.24148437 6.15851563 28.94921875 6.17578125 C27.74394531 6.18222656 26.53867188 6.18867188 25.296875 6.1953125 C24.18666992 6.20578613 23.07646484 6.21625977 21.93261719 6.22705078 C18.99858531 5.99989047 17.51475743 5.42592097 15 4 C12.4138276 3.4002281 9.85690933 2.85794351 7.25 2.375 C6.55261719 2.2409375 5.85523438 2.106875 5.13671875 1.96875 C3.42548068 1.64056736 1.71286829 1.31956498 0 1 C0 0.67 0 0.34 0 0 Z " fill="#676767" transform="translate(217,433)"/>
<path d="M0 0 C1 3 1 3 0.03125 5.56640625 C-3.48977825 12.4557651 -7.36552499 18.80241804 -12 25 C-12.66 24.67 -13.32 24.34 -14 24 C-12.50084582 19.8502794 -10.45880523 16.30099177 -8.125 12.5625 C-7.44695312 11.47066406 -6.76890625 10.37882812 -6.0703125 9.25390625 C-4.08803882 6.13837044 -2.06094666 3.06369425 0 0 Z " fill="#131313" transform="translate(378,304)"/>
<path d="M0 0 C1.58152021 0.18754781 3.16102975 0.39269555 4.73828125 0.61328125 C5.90520508 0.7515332 5.90520508 0.7515332 7.09570312 0.89257812 C12.20303295 1.53578647 17.08067848 2.59095365 22.05078125 3.92578125 C22.05078125 4.25578125 22.05078125 4.58578125 22.05078125 4.92578125 C15.39601653 6.11076884 9.69424893 5.56498118 3.05078125 4.48828125 C2.08527344 4.34068359 1.11976563 4.19308594 0.125 4.04101562 C-2.2347437 3.67887674 -4.59248919 3.30696053 -6.94921875 2.92578125 C-4.45479748 -0.06917653 -4.24830919 -0.07983964 0 0 Z " fill="#585858" transform="translate(277.94921875,67.07421875)"/>
<path d="M0 0 C8.75861562 0.79623778 17.35560508 2.42197613 26 4 C25.01 5.485 25.01 5.485 24 7 C17.97608053 7.57620099 13.16799625 6.44181353 7.5 4.5 C6.77296875 4.26152344 6.0459375 4.02304687 5.296875 3.77734375 C3.52776065 3.19539824 1.76334654 2.59919543 0 2 C0 1.34 0 0.68 0 0 Z " fill="#303030" transform="translate(215,394)"/>
<path d="M0 0 C0.99 0.495 0.99 0.495 2 1 C3.28579215 7.79286417 3.11608057 14.6087148 3.0625 21.5 C3.05798828 22.60859375 3.05347656 23.7171875 3.04882812 24.859375 C3.03713158 27.57297399 3.02074086 30.28645761 3 33 C-0.26959472 29.51544923 -0.35467248 26.95510858 -0.29296875 22.265625 C-0.28330078 20.97011719 -0.27363281 19.67460937 -0.26367188 18.33984375 C-0.23860783 16.97655646 -0.21321302 15.61327521 -0.1875 14.25 C-0.17244518 12.87110816 -0.15875817 11.49220065 -0.14648438 10.11328125 C-0.11111909 6.74179085 -0.06175904 3.37109346 0 0 Z " fill="#B7B7B7" transform="translate(430,226)"/>
<path d="M0 0 C6.57426548 9.86139821 8.8830335 26.51349567 7 38 C6.67 38 6.34 38 6 38 C5.92483154 37.43192627 5.84966309 36.86385254 5.7722168 36.27856445 C4.42969353 26.23957527 3.09291421 16.31263794 0.55078125 6.49609375 C0 4 0 4 0 0 Z " fill="#282828" transform="translate(421,192)"/>
<path d="M0 0 C0.33 0.66 0.66 1.32 1 2 C1.66 2 2.32 2 3 2 C1.95518663 8.70880162 0.30199356 14.0564116 -3 20 C-3.99 20 -4.98 20 -6 20 C-4 13.33333333 -2 6.66666667 0 0 Z " fill="#E4E4E4" transform="translate(423,295)"/>
<path d="M0 0 C11.22 0 22.44 0 34 0 C34 0.99 34 1.98 34 3 C28.06 3 22.12 3 16 3 C16 2.67 16 2.34 16 2 C10.72 1.67 5.44 1.34 0 1 C0 0.67 0 0.34 0 0 Z " fill="#A0A0A0" transform="translate(232,110)"/>
<path d="M0 0 C0.33 0.66 0.66 1.32 1 2 C1.66 2 2.32 2 3 2 C3.70133599 3.57725347 4.385583 5.16211333 5.0625 6.75 C5.44535156 7.63171875 5.82820313 8.5134375 6.22265625 9.421875 C7.48949014 13.62343465 5.99894003 16.26864527 4 20 C0 6.57142857 0 6.57142857 0 0 Z " fill="#898989" transform="translate(414,176)"/>
<path d="M0 0 C0 3 0 3 -1.3125 4.38671875 C-2.875 5.59114583 -4.4375 6.79557292 -6 8 C-6 5 -6 5 -4.6875 3.61328125 C-3.125 2.40885417 -1.5625 1.20442708 0 0 Z M-9 7 C-8.34 7.33 -7.68 7.66 -7 8 C-12.28 13.28 -17.56 18.56 -23 24 C-23 21 -23 21 -21.71484375 19.37426758 C-21.12832031 18.80345459 -20.54179688 18.2326416 -19.9375 17.64453125 C-19.30585937 17.02255859 -18.67421875 16.40058594 -18.0234375 15.75976562 C-17.35570313 15.11716797 -16.68796875 14.47457031 -16 13.8125 C-15.33226563 13.15830078 -14.66453125 12.50410156 -13.9765625 11.83007812 C-12.32421559 10.21313865 -10.66528399 8.60359509 -9 7 Z " fill="#202020" transform="translate(114,119)"/>
<path d="M0 0 C1 2 1 2 -0.07421875 5.6328125 C-0.60409503 7.13301638 -1.14224563 8.63031668 -1.6875 10.125 C-2.07325195 11.22714844 -2.07325195 11.22714844 -2.46679688 12.3515625 C-4.29261573 17.44770554 -6.50118851 22.19836223 -9 27 C-9.66 26.01 -10.32 25.02 -11 24 C-10.5402832 22.20996094 -10.5402832 22.20996094 -9.55078125 20.234375 C-9.19693359 19.50863281 -8.84308594 18.78289062 -8.47851562 18.03515625 C-8.09373047 17.28105469 -7.70894531 16.52695312 -7.3125 15.75 C-6.578348 14.2661584 -5.84526249 12.78178864 -5.11328125 11.296875 C-4.57695068 10.22083008 -4.57695068 10.22083008 -4.02978516 9.12304688 C-2.57558444 6.12500765 -1.28143274 3.07543857 0 0 Z " fill="#404040" transform="translate(421,311)"/>
<path d="M0 0 C1.42600325 4.27800976 -0.54362936 6.86765922 -2.4375 10.6875 C-2.77587891 11.38939453 -3.11425781 12.09128906 -3.46289062 12.81445312 C-4.29981348 14.54723706 -5.14877393 16.27419752 -6 18 C-7.32 18 -8.64 18 -10 18 C-6.79615385 9.76153846 -6.79615385 9.76153846 -4.5625 7.625 C-2.40212603 5.37821107 -1.30930299 2.80564927 0 0 Z " fill="#3A3A3A" transform="translate(428,317)"/>
<path d="M0 0 C4.90846701 1.40241914 6.91671466 4.04707008 10 8 C11.31543863 9.35099103 12.64175118 10.69205669 14 12 C12.35 11.67 10.7 11.34 9 11 C9 10.34 9 9.68 9 9 C8.278125 8.773125 7.55625 8.54625 6.8125 8.3125 C3.46790687 6.75168987 1.48396041 4.6968713 -1 2 C-0.67 1.34 -0.34 0.68 0 0 Z " fill="#1F1F1F" transform="translate(358,100)"/>
<path d="M0 0 C0.33 0.66 0.66 1.32 1 2 C-0.24703105 3.89778755 -1.49776058 5.79314511 -2.75 7.6875 C-3.44609375 8.74324219 -4.1421875 9.79898437 -4.859375 10.88671875 C-6.79575228 13.70294628 -8.82801501 16.3632885 -11 19 C-11.66 18.67 -12.32 18.34 -13 18 C-11.40008931 15.5596109 -9.79530161 13.12268213 -8.1875 10.6875 C-7.73568359 9.99720703 -7.28386719 9.30691406 -6.81835938 8.59570312 C-6.15610352 7.59506836 -6.15610352 7.59506836 -5.48046875 6.57421875 C-4.87561646 5.65515747 -4.87561646 5.65515747 -4.25854492 4.7175293 C-2.97288191 2.9629921 -1.57554838 1.49546968 0 0 Z " fill="#535353" transform="translate(384,317)"/>
<path d="M0 0 C0.33 0 0.66 0 1 0 C1.34548714 6.33393082 0.29342747 11.10261508 -2 17 C-2.66 17 -3.32 17 -4 17 C-3.45018084 10.95198929 -2.09570426 5.69398894 0 0 Z " fill="#EBEBEB" transform="translate(428,280)"/>
<path d="M0 0 C0.66 0 1.32 0 2 0 C2.50838564 2.03959477 3.00633886 4.08179138 3.5 6.125 C3.7784375 7.26195312 4.056875 8.39890625 4.34375 9.5703125 C4.97121631 12.84957095 5.26987593 15.67474298 5 19 C4.34 19.66 3.68 20.32 3 21 C2.01 14.07 1.02 7.14 0 0 Z " fill="#E3E3E3" transform="translate(426,207)"/>
<path d="M0 0 C0.99 0.495 0.99 0.495 2 1 C2.6328125 3.73046875 2.6328125 3.73046875 3.125 7.1875 C3.29257812 8.31542969 3.46015625 9.44335938 3.6328125 10.60546875 C3.97525114 13.77120471 4.06757134 16.81932036 4 20 C3.34 20 2.68 20 2 20 C-0.29612756 6.3667426 -0.29612756 6.3667426 0 0 Z " fill="#282828" transform="translate(388,216)"/>
<path d="M0 0 C4.55015893 1.51671964 6.50057264 5.16891053 9 9 C8.01 10.485 8.01 10.485 7 12 C5.821389 10.76125579 4.65747085 9.5085199 3.5 8.25 C2.8503125 7.55390625 2.200625 6.8578125 1.53125 6.140625 C0 4 0 4 0 0 Z " fill="#464646" transform="translate(386,126)"/>
<path d="M0 0 C4.41512587 5.06921859 8.71417813 10.74163072 9.3125 17.5625 C9.1578125 18.7690625 9.1578125 18.7690625 9 20 C6.27460257 17.27460257 4.97288702 14.01484532 3.375 10.5625 C2.88773437 9.5405957 2.88773437 9.5405957 2.390625 8.49804688 C0.99331698 5.50087989 0 3.34619858 0 0 Z " fill="#696969" transform="translate(370,171)"/>
<path d="M0 0 C3 1 3 1 3.90722656 2.70239258 C4.14924805 3.42579834 4.39126953 4.1492041 4.640625 4.89453125 C4.90617187 5.68537109 5.17171875 6.47621094 5.4453125 7.29101562 C5.71085937 8.12310547 5.97640625 8.95519531 6.25 9.8125 C6.53101563 10.63298828 6.81203125 11.45347656 7.1015625 12.29882812 C9.30615573 19.02720301 9.30615573 19.02720301 8 23 C6.85071956 19.91794058 5.70618337 16.83414029 4.5625 13.75 C4.23701172 12.87730469 3.91152344 12.00460938 3.57617188 11.10546875 C3.26357422 10.26113281 2.95097656 9.41679687 2.62890625 8.546875 C2.34088135 7.77182617 2.05285645 6.99677734 1.75610352 6.19824219 C1.0505355 4.14692336 0.4901246 2.11195321 0 0 Z " fill="#363636" transform="translate(374,185)"/>
<path d="M0 0 C2.06298828 0.04833984 2.06298828 0.04833984 4.5703125 0.4609375 C5.91416016 0.67363281 5.91416016 0.67363281 7.28515625 0.890625 C8.22230469 1.05046875 9.15945312 1.2103125 10.125 1.375 C11.54232422 1.60316406 11.54232422 1.60316406 12.98828125 1.8359375 C15.32734344 2.21396775 17.66420216 2.60237704 20 3 C20 3.33 20 3.66 20 4 C12.34393782 4.19355213 5.33741969 4.3479743 -2 2 C-1.34 1.34 -0.68 0.68 0 0 Z " fill="#191919" transform="translate(219,434)"/>
<path d="M0 0 C0.99 0 1.98 0 3 0 C1.72232235 4.99455809 -0.12911784 7.61297811 -4 11 C-4.99 11.495 -4.99 11.495 -6 12 C-4.43358249 7.69235185 -2.31663844 3.93828536 0 0 Z " fill="#171717" transform="translate(407,340)"/>
<path d="M0 0 C4.29 0.33 8.58 0.66 13 1 C12.01 2.485 12.01 2.485 11 4 C3.85106383 4.56737589 3.85106383 4.56737589 0 2 C0 1.34 0 0.68 0 0 Z " fill="#676767" transform="translate(228,397)"/>
<path d="M0 0 C-1.40844718 3.21524305 -3.10344786 5.32183868 -5.625 7.75 C-6.57246094 8.67039062 -6.57246094 8.67039062 -7.5390625 9.609375 C-8.02117187 10.06828125 -8.50328125 10.5271875 -9 11 C-9.66 10.34 -10.32 9.68 -11 9 C-9.54782324 7.49403892 -8.08807139 5.99537896 -6.625 4.5 C-5.40683594 3.24703125 -5.40683594 3.24703125 -4.1640625 1.96875 C-2 0 -2 0 0 0 Z " fill="#111111" transform="translate(382,367)"/>
<path d="M0 0 C1 3 1 3 0.00390625 5.48046875 C-0.47175781 6.37378906 -0.94742187 7.26710938 -1.4375 8.1875 C-1.91058594 9.08855469 -2.38367188 9.98960937 -2.87109375 10.91796875 C-3.24363281 11.60503906 -3.61617188 12.29210937 -4 13 C-4.66 12.67 -5.32 12.34 -6 12 C-4.68139111 7.38486888 -2.78644563 3.90102388 0 0 Z " fill="#101010" transform="translate(413,319)"/>
<path d="M0 0 C0.33 0 0.66 0 1 0 C1.02712066 1.43739513 1.04645067 2.87493863 1.0625 4.3125 C1.07410156 5.11300781 1.08570313 5.91351563 1.09765625 6.73828125 C1 9 1 9 0 12 C-0.66 12 -1.32 12 -2 12 C-2.05422947 10.5629191 -2.09289723 9.12524538 -2.125 7.6875 C-2.14820313 6.88699219 -2.17140625 6.08648437 -2.1953125 5.26171875 C-2 3 -2 3 0 0 Z " fill="#111111" transform="translate(427,270)"/>
<path d="M0 0 C0.95465783 2.16967689 1.14401212 3.56328793 0.3984375 5.82421875 C-0.35870385 7.5684743 -1.17609198 9.28627131 -2 11 C-2.99 11 -3.98 11 -5 11 C-4.54917531 9.53932801 -4.08906463 8.08151968 -3.625 6.625 C-3.36976563 5.81289063 -3.11453125 5.00078125 -2.8515625 4.1640625 C-2 2 -2 2 0 0 Z " fill="#1B1B1B" transform="translate(382,294)"/>
<path d="M0 0 C0.66 0.33 1.32 0.66 2 1 C-2.81578947 5.97631579 -2.81578947 5.97631579 -7.125 6.0625 C-8.07375 6.041875 -9.0225 6.02125 -10 6 C-8.0331974 4.0331974 -6.4555341 3.0628363 -4 1.8125 C-3.29875 1.44769531 -2.5975 1.08289063 -1.875 0.70703125 C-1.25625 0.47371094 -0.6375 0.24039062 0 0 Z " fill="#2D2D2D" transform="translate(340,406)"/>
<path d="M0 0 C0.33 0 0.66 0 1 0 C2.33257403 10.55808656 2.33257403 10.55808656 1 15 C0.67 15 0.34 15 0 15 C-0.19448477 12.87562788 -0.38038289 10.75046809 -0.5625 8.625 C-0.66691406 7.44164062 -0.77132813 6.25828125 -0.87890625 5.0390625 C-1 2 -1 2 0 0 Z " fill="#383838" transform="translate(427,215)"/>
<path d="M0 0 C-0.99 0.33 -1.98 0.66 -3 1 C-3 1.66 -3 2.32 -3 3 C-6.96 2.67 -10.92 2.34 -15 2 C-15 1.67 -15 1.34 -15 1 C-10.03926578 -0.32286246 -5.08888488 -0.08893197 0 0 Z " fill="#3D3D3D" transform="translate(278,71)"/>
<path d="M0 0 C0.66 0 1.32 0 2 0 C0.33248852 3.94139078 -2.22710649 6.7892812 -5 10 C-5.66 9.34 -6.32 8.68 -7 8 C-5.88200014 6.66079162 -4.75538103 5.32877444 -3.625 4 C-2.68527344 2.88625 -2.68527344 2.88625 -1.7265625 1.75 C-1.15679687 1.1725 -0.58703125 0.595 0 0 Z " fill="#191919" transform="translate(388,358)"/>
<path d="M0 0 C2 3 2 3 2 5 C1.34 5 0.68 5 0 5 C-0.268125 5.928125 -0.53625 6.85625 -0.8125 7.8125 C-1.94480421 10.85184289 -2.69900511 11.90073617 -5 14 C-3.45730076 9.27934033 -1.92205381 4.58335908 0 0 Z " fill="#CCCCCC" transform="translate(428,312)"/>
<path d="M0 0 C3.63 1.32 7.26 2.64 11 4 C10.67 4.66 10.34 5.32 10 6 C6.7 5.01 3.4 4.02 0 3 C0 2.01 0 1.02 0 0 Z " fill="#787878" transform="translate(315,78)"/>
<path d="M0 0 C1.98 1.65 3.96 3.3 6 5 C5.67 5.99 5.34 6.98 5 8 C2.69 6.02 0.38 4.04 -2 2 C-1.34 1.34 -0.68 0.68 0 0 Z " fill="#141414" transform="translate(340,123)"/>
<path d="M0 0 C-5.14285714 4.42857143 -5.14285714 4.42857143 -9 5 C-9 4.01 -9 3.02 -9 2 C-3.375 -1.125 -3.375 -1.125 0 0 Z " fill="#141414" transform="translate(355,392)"/>
<path d="M0 0 C0.99 0.33 1.98 0.66 3 1 C3.984375 3.1796875 3.984375 3.1796875 4.75 5.875 C5.01296875 6.75929687 5.2759375 7.64359375 5.546875 8.5546875 C6 11 6 11 5 14 C4.16235732 12.04350603 3.33000941 10.08474444 2.5 8.125 C2.0359375 7.03445312 1.571875 5.94390625 1.09375 4.8203125 C0 2 0 2 0 0 Z " fill="#272727" transform="translate(411,175)"/>
<path d="M0 0 C0.33 0.66 0.66 1.32 1 2 C1.66 2.2475 2.32 2.495 3 2.75 C5 4 5 4 5.75 7.125 C5.8325 8.07375 5.915 9.0225 6 10 C3.04070881 7.24479785 0.96318174 4.53372712 -1 1 C-0.67 0.67 -0.34 0.34 0 0 Z " fill="#A5A5A5" transform="translate(401,140)"/>
<path d="M0 0 C0.66 0.66 1.32 1.32 2 2 C1.625 5.125 1.625 5.125 1 8 C0.34 7.34 -0.32 6.68 -1 6 C-1.99 6.66 -2.98 7.32 -4 8 C-2.87548273 5.0280615 -1.77706209 2.66559313 0 0 Z " fill="#3B3B3B" transform="translate(416,337)"/>
<path d="M0 0 C0.33 0.66 0.66 1.32 1 2 C1.66 2 2.32 2 3 2 C2.67 4.31 2.34 6.62 2 9 C1.01 8.67 0.02 8.34 -1 8 C-0.67 5.36 -0.34 2.72 0 0 Z " fill="#303030" transform="translate(424,280)"/>
<path d="M0 0 C0.33 1.32 0.66 2.64 1 4 C1.66 4 2.32 4 3 4 C2.67 6.64 2.34 9.28 2 12 C1.01 11.34 0.02 10.68 -1 10 C-0.67 6.7 -0.34 3.4 0 0 Z " fill="#C8C8C8" transform="translate(428,271)"/>
<path d="M0 0 C3.77545388 1.09068668 6.47043472 1.9083091 9 5 C8.01 5.33 7.02 5.66 6 6 C2.8125 3.625 2.8125 3.625 0 1 C0 0.67 0 0.34 0 0 Z " fill="#2D2D2D" transform="translate(368,111)"/>
<path d="M0 0 C-2.31 1.65 -4.62 3.3 -7 5 C-7.66 4.67 -8.32 4.34 -9 4 C-6.3515138 0.02727069 -4.69305063 -1.56435021 0 0 Z " fill="#111111" transform="translate(333,361)"/>
<path d="M0 0 C0.33 0.66 0.66 1.32 1 2 C-0.98 4.97 -0.98 4.97 -3 8 C-3.66 7.67 -4.32 7.34 -5 7 C-3.75023244 3.34683329 -3.32901247 2.21934164 0 0 Z " fill="#161616" transform="translate(402,340)"/>
<path d="M0 0 C0.6875 1.75 0.6875 1.75 1 4 C-0.3125 6.25 -0.3125 6.25 -2 8 C-2.66 8 -3.32 8 -4 8 C-2.25 2.25 -2.25 2.25 0 0 Z " fill="#F0F0F0" transform="translate(418,314)"/>
<path d="M0 0 C0.33 1.32 0.66 2.64 1 4 C1.66 4 2.32 4 3 4 C2.67 5.98 2.34 7.96 2 10 C1.01 10 0.02 10 -1 10 C-0.67 6.7 -0.34 3.4 0 0 Z " fill="#2B2B2B" transform="translate(387,269)"/>
<path d="M0 0 C2.79872437 2.52788007 4.45773019 4.20411134 5 8 C4.01 8 3.02 8 2 8 C0.23537317 4.91190305 0 3.76687864 0 0 Z " fill="#8C8C8C" transform="translate(402,149)"/>
<path d="M0 0 C0.33 0.66 0.66 1.32 1 2 C-0.65 4.31 -2.3 6.62 -4 9 C-4.33 8.01 -4.66 7.02 -5 6 C-2.66666667 1.33333333 -2.66666667 1.33333333 0 0 Z " fill="#616161" transform="translate(384,317)"/>
<path d="M0 0 C0.96516243 3.00272755 1.22393475 5.04215769 0 8 C-0.99 8.33 -1.98 8.66 -3 9 C-2.25 2.25 -2.25 2.25 0 0 Z " fill="#434343" transform="translate(401,267)"/>
<path d="M0 0 C0.66 0 1.32 0 2 0 C3.5625 2.8125 3.5625 2.8125 5 6 C4.67 6.99 4.34 7.98 4 9 C4 8.34 4 7.68 4 7 C3.34 7 2.68 7 2 7 C0.5393715 4.35261084 0 3.10551666 0 0 Z " fill="#737373" transform="translate(411,169)"/>
<path d="M0 0 C2.5 1.8125 2.5 1.8125 5 4 C5 4.99 5 5.98 5 7 C2.37812506 5.95125002 1.20628639 5.35068687 -0.25 2.875 C-0.4975 2.25625 -0.745 1.6375 -1 1 C-0.67 0.67 -0.34 0.34 0 0 Z " fill="#141414" transform="translate(366,148)"/>
<path d="M0 0 C0 3 0 3 -1.53125 4.60546875 C-2.1809375 5.12753906 -2.830625 5.64960938 -3.5 6.1875 C-4.1496875 6.71730469 -4.799375 7.24710938 -5.46875 7.79296875 C-5.9740625 8.19128906 -6.479375 8.58960938 -7 9 C-7 6 -7 6 -5.46875 4.39453125 C-4.49421875 3.61142578 -4.49421875 3.61142578 -3.5 2.8125 C-2.8503125 2.28269531 -2.200625 1.75289062 -1.53125 1.20703125 C-1.0259375 0.80871094 -0.520625 0.41039062 0 0 Z " fill="#494949" transform="translate(145,141)"/>
<path d="M0 0 C3.65316671 1.24976756 4.78065836 1.67098753 7 5 C6.401875 4.835 5.80375 4.67 5.1875 4.5 C2.88655664 3.8885876 2.88655664 3.8885876 0 4 C0 2.66666667 0 1.33333333 0 0 Z " fill="#8D8D8D" transform="translate(358,100)"/>
<path d="M0 0 C0.66 0.33 1.32 0.66 2 1 C2 1.66 2 2.32 2 3 C0.1875 4.0625 0.1875 4.0625 -2 5 C-2.99 4.67 -3.98 4.34 -5 4 C-4.34 4 -3.68 4 -3 4 C-3 3.01 -3 2.02 -3 1 C-2.01 0.67 -1.02 0.34 0 0 Z " fill="#1B1B1B" transform="translate(319,416)"/>
<path d="M0 0 C3.6 5.4 3.6 5.4 5 8 C4.67 8.66 4.34 9.32 4 10 C0.38860104 6.12435233 0.38860104 6.12435233 -1 4 C-0.8125 1.625 -0.8125 1.625 0 0 Z " fill="#313131" transform="translate(140,327)"/>
<path d="M0 0 C0.33 0.66 0.66 1.32 1 2 C1.66 2 2.32 2 3 2 C2.67 3.65 2.34 5.3 2 7 C1.01 7 0.02 7 -1 7 C-0.67 4.69 -0.34 2.38 0 0 Z " fill="#D1D1D1" transform="translate(423,295)"/>
<path d="M0 0 C0.66 0 1.32 0 2 0 C2.66 1.65 3.32 3.3 4 5 C3.34 5.66 2.68 6.32 2 7 C0 4 0 4 0 0 Z " fill="#777777" transform="translate(413,158)"/>
<path d="M0 0 C2.31 1.98 4.62 3.96 7 6 C6.34 6.66 5.68 7.32 5 8 C2.5 6.25 2.5 6.25 0 4 C0 2.68 0 1.36 0 0 Z " fill="#242424" transform="translate(346,128)"/>
</svg>
